<?xml version="1.0" encoding="UTF-8"?>
<svg width="350px" height="350px" viewBox="0 0 350 350" version="1.1" xmlns="http://www.w3.org/2000/svg" xmlns:xlink="http://www.w3.org/1999/xlink">
    <title>image_clinical-match</title>
    <g id="Product" stroke="none" stroke-width="1" fill="none" fill-rule="evenodd">
        <g id="Clinical-Trials---Empty" transform="translate(-545.000000, -330.000000)">
            <g id="Empty-State" transform="translate(120.000000, 330.000000)">
                <g id="image_clinical-match" transform="translate(425.000000, 0.000000)">
                    <path d="M175,350 C78.5056604,350 0,271.494011 0,174.996646 C0,78.5026354 78.5056604,0 175,0 C271.49434,0 350,78.5026354 350,174.996646 C350,271.494011 271.49434,350 175,350" id="Circle" fill="#2AAAE1"></path>
                    <g id="Group-2" transform="translate(35.000000, 40.000000)">
                        <path d="M253.826667,9.23705556e-13 L253.826667,180.256667 L91.969,180.256 L44.141,228.083333 L44.14,180.256 L-2.4158453e-13,180.256667 L-2.4158453e-13,9.23705556e-13 L253.826667,9.23705556e-13 Z" id="Combined-Shape" fill="#EDE0BE"></path>
                        <path d="M221.676667,138.503333 L221.676667,147.473333 L50.62,147.473333 L50.62,138.503333 L221.676667,138.503333 Z M221.676667,113.07 L221.676667,122.043333 L50.62,122.043333 L50.62,113.07 L221.676667,113.07 Z M221.676667,87.6466667 L221.676667,96.62 L50.62,96.62 L50.62,87.6466667 L221.676667,87.6466667 Z M221.676667,62.22 L221.676667,71.1933333 L50.62,71.1933333 L50.62,62.22 L221.676667,62.22 Z M221.676667,36.79 L221.676667,45.7733333 L50.62,45.7733333 L50.62,36.79 L221.676667,36.79 Z" id="Combined-Shape" fill="#528311"></path>
                        <path d="M39.5833333,138.503333 L39.5833333,147.473333 L29.4266667,147.473333 L29.4266667,138.503333 L39.5833333,138.503333 Z M39.5833333,113.07 L39.5833333,122.043333 L29.4266667,122.043333 L29.4266667,113.07 L39.5833333,113.07 Z M39.5833333,87.6466667 L39.5833333,96.62 L29.4266667,96.62 L29.4266667,87.6466667 L39.5833333,87.6466667 Z M39.5833333,62.22 L39.5833333,71.1933333 L29.4266667,71.1933333 L29.4266667,62.22 L39.5833333,62.22 Z M39.5833333,36.79 L39.5833333,45.7733333 L29.4266667,45.7733333 L29.4266667,36.79 L39.5833333,36.79 Z" id="Combined-Shape" fill="#83BD36"></path>
                    </g>
                    <g id="Group" transform="translate(200.000000, 150.000000)">
                        <path d="M58.5133333,58.5033333 L58.5133333,1.70530257e-12 C90.8233333,1.70530257e-12 117.023333,26.19 117.023333,58.5033333 C117.023333,90.8133333 90.8233333,117.016667 58.5133333,117.016667 C26.1966667,117.016667 -1.42108547e-13,90.8133333 -1.42108547e-13,58.5033333 C-1.42108547e-13,39.1166667 8.43666667,22.5633333 24.12,11.1666667 L58.5133333,58.5033333 Z" id="Fill-42" fill="#C35F19"></path>
                        <path d="M58.5133333,58.5033333 L24.12,11.1666667 C34.58,3.57666667 45.59,3.41060513e-13 58.5133333,3.41060513e-13 L58.5133333,58.5033333 Z" id="Fill-41" fill="#F5D2AF"></path>
                        <path d="M58.507,58.5033333 L114.147,76.5866667 C124.133667,45.8566667 107.317,12.8433333 76.587,2.85666667 C70.4403333,0.863333333 64.9636667,1.53477231e-12 58.507,1.53477231e-12 L58.507,58.5033333 Z" id="Fill-43" fill="#E18C28"></path>
                    </g>
                    <g id="Pencil" transform="translate(35.000000, 289.000000)">
                        <path d="M8.16333333,0.155 L8.16333333,12.2883333 L1.30666667,12.2883333 C0.58,12.2883333 -1.88293825e-13,11.6883333 -1.88293825e-13,10.9616667 L-1.88293825e-13,10.9616667 L-1.88293825e-13,1.495 C-1.88293825e-13,0.960729167 0.299628906,0.502226562 0.737986857,0.286580505 C0.909380674,0.202048117 1.1018326,0.154666667 1.30566667,0.154666667 L1.30566667,0.154666667 L8.16333333,0.155 Z" id="Combined-Shape" fill="#A6A8AB"></path>
                        <path d="M31.3366667,0.00833333333 L224.066667,0.00833333333 C223.846667,1.49833333 222.726667,2.65166667 221.316667,2.84833333 L221.316667,2.84833333 L221.346,2.84833333 C221.346,2.855 221.319333,2.855 221.316,2.86166667 C222.889333,3.06833333 224.112667,4.49166667 224.112667,6.21833333 C224.102667,7.965 222.889333,9.38833333 221.316,9.585 L221.316,9.585 L221.346,9.58833333 L221.316,9.605 L221.498218,9.63487981 C222.82169,9.8958891 223.855565,11.0164058 224.066,12.448 L224.066,12.448 L31.336,12.448 L31.3366667,0.00833333333 Z" id="Combined-Shape" fill="#58585B"></path>
                        <path d="M224.067333,7.38964445e-13 L249.594,6.21666667 L224.067333,12.45 C223.854,10.96 222.727333,9.79333333 221.317333,9.60666667 L221.317333,9.60666667 L221.347333,9.59 L221.317333,9.58666667 C222.887333,9.38666667 224.104,7.96666667 224.114,6.21666667 C224.114,4.49333333 222.887333,3.07 221.317333,2.86 C221.320667,2.85333333 221.347333,2.85333333 221.347333,2.84666667 L221.347333,2.84666667 L221.317333,2.84666667 L221.317333,2.84666667 L221.499588,2.81601929 C222.823578,2.55183365 223.863275,1.4284058 224.067333,7.38964445e-13 L224.067333,7.38964445e-13 Z" id="Combined-Shape" fill="#E5E6E7"></path>
                        <path d="M241.899333,4.35233333 C241.829333,4.93233333 241.762667,5.51566667 241.762667,6.12233333 C241.762667,6.79233333 241.829333,7.45233333 241.939333,8.09566667 L249.596,6.219 L241.899333,4.35233333 Z" id="Fill-26" fill="#121213"></path>
                        <path d="M31.3353333,0.0826666667 L31.3353333,12.3826667 L7.91533333,12.3826667 L7.91533333,0.0826666667 L31.3353333,0.0826666667 Z" id="Combined-Shape" fill="#E5E6E7"></path>
                    </g>
                </g>
            </g>
        </g>
    </g>
</svg>