<?xml version="1.0" encoding="UTF-8"?>
<svg width="350px" height="350px" viewBox="0 0 350 350" version="1.1" xmlns="http://www.w3.org/2000/svg" xmlns:xlink="http://www.w3.org/1999/xlink">
    <title>image_diagnosis-articles</title>
    <g id="Product" stroke="none" stroke-width="1" fill="none" fill-rule="evenodd">
        <g id="Diagnosis-Articles---Empty" transform="translate(-545.000000, -330.000000)">
            <g id="Empty-State" transform="translate(120.000000, 330.000000)">
                <g id="image_diagnosis-articles" transform="translate(425.000000, 0.000000)">
                    <path d="M175,350 C78.5056604,350 0,271.500719 0,175.003354 C0,78.5093436 78.5056604,-4.73695157e-14 175,-4.73695157e-14 C271.49434,-4.73695157e-14 350,78.5093436 350,175.003354 C350,271.500719 271.49434,350 175,350" id="Circle" fill="#2AAAE1"></path>
                    <g id="Bulb" transform="translate(35.000000, 120.000000)">
                        <path d="M35.71,-3.58824082e-12 C55.4433333,-3.58824082e-12 71.42,15.9833333 71.42,35.71 C71.42,36.88 70.5666667,53.38 57.11,70.71 C53.17,75.9333333 53.82,86.4466667 53.8566667,86.4466667 L17.4733333,86.4466667 C17.5066667,86.4466667 18.23,75.9333333 14.3066667,70.71 C0.833333333,53.3666667 8.52651283e-14,36.88 8.52651283e-14,35.71 C8.52651283e-14,15.9833333 15.9833333,-3.58824082e-12 35.71,-3.58824082e-12 Z" id="Glass" fill="#EDE0BE"></path>
                        <path d="M47.5193333,51.8363333 L49.3826667,52.3963333 L44.7493333,89.2063333 L42.8826667,88.6496667 L46.9035713,56.7238925 C46.2646881,56.3037672 45.9032527,55.4932107 45.6183333,54.8456667 C45.4483333,54.469 45.0983333,53.6723333 44.895,53.6723333 C44.6983333,53.6723333 44.3416667,54.469 44.1783333,54.8456667 C43.7683333,55.7623333 43.215,57.0056667 41.9316667,57.0056667 C40.6516667,57.0056667 40.0983333,55.7623333 39.6916667,54.8456667 C39.595,54.639 39.455,54.3056667 39.3016667,54.049 C38.6516667,55.2623333 37.4616667,57.0056667 36.0083333,57.0056667 C34.7283333,57.0056667 34.175,55.7623333 33.765,54.8456667 C33.595,54.459 33.2416667,53.6723333 33.045,53.6723333 C32.845,53.6723333 32.4916667,54.459 32.325,54.8456667 C31.9216667,55.7623333 31.3616667,57.0056667 30.0783333,57.0056667 C28.795,57.0056667 28.2416667,55.7623333 27.835,54.8456667 C27.6616667,54.469 27.3116667,53.6723333 27.1083333,53.6723333 C26.9083333,53.6723333 26.555,54.459 26.3883333,54.8456667 C26.0176167,55.6882045 25.5145475,56.8067116 24.4391166,56.9821042 L28.4326667,88.6496667 L26.5626667,89.2063333 L21.926,52.3963333 L23.7893333,51.8363333 L24.22612,55.3018891 C24.4298897,55.1409427 24.7169594,54.496581 24.865,54.1656667 C25.2716667,53.2523333 25.825,52.0056667 27.1083333,52.0056667 C28.395,52.0056667 28.9516667,53.2523333 29.355,54.1656667 C29.5283333,54.5456667 29.8783333,55.339 30.0783333,55.339 C30.2816667,55.339 30.6316667,54.5456667 30.8016667,54.1656667 C31.2083333,53.2523333 31.765,52.0056667 33.045,52.0056667 C34.3283333,52.0056667 34.8816667,53.2523333 35.2883333,54.1656667 C35.455,54.5456667 35.8083333,55.339 36.0083333,55.339 C36.4983333,55.339 37.5516667,53.9856667 38.2083333,52.499 C38.345,52.2023333 38.645,52.0056667 38.9716667,52.0056667 C40.255,52.0056667 40.8083333,53.259 41.2183333,54.1656667 C41.3783333,54.5456667 41.735,55.339 41.9316667,55.339 C42.135,55.339 42.4883333,54.5523333 42.6516667,54.1656667 C43.0616667,53.259 43.615,52.0056667 44.895,52.0056667 C46.1783333,52.0056667 46.7383333,53.259 47.1416667,54.1656667 C47.1612821,54.2102821 47.1832939,54.2602229 47.2071901,54.3136662 L47.5193333,51.8363333 Z" id="Internal" fill="#83BD36"></path>
                        <path d="M54.6226667,86.6073333 C55.6393333,86.6073333 56.4526667,87.434 56.4526667,88.444 C56.4526667,89.454 55.6393333,90.2706667 54.6226667,90.2706667 L53.8926667,90.2703333 L53.8926667,92.7133333 L54.6226667,92.714 C55.6393333,92.714 56.4526667,93.5306667 56.4526667,94.544 C56.4526667,95.554 55.6393333,96.374 54.6226667,96.374 L53.8926667,96.3733333 L53.8926667,98.8203333 L54.6226667,98.821 C55.6393333,98.821 56.4526667,99.631 56.4526667,100.651 C56.4526667,101.654333 55.6393333,102.477667 54.6226667,102.477667 L53.8926667,102.477333 L53.8933333,105.314333 C53.8933333,106.4945 53.007462,107.466729 51.8624096,107.606963 C51.7440302,108.505052 50.9769229,109.19 50.047,109.19 L50.047,109.19 L21.3736667,109.19 C20.4389558,109.19 19.6704821,108.502511 19.5526594,107.601584 C18.4277459,107.442384 17.5666667,106.479744 17.5666667,105.314333 L17.5666667,102.477333 L16.796,102.477667 C15.786,102.477667 14.9626667,101.654333 14.9626667,100.651 C14.9626667,99.631 15.786,98.821 16.796,98.821 L17.5666667,98.8203333 L17.5666667,96.3733333 L16.796,96.374 C15.786,96.374 14.9626667,95.554 14.9626667,94.544 C14.9626667,93.5306667 15.786,92.714 16.796,92.714 L17.5666667,92.7133333 L17.5666667,90.2703333 L16.796,90.2706667 C15.786,90.2706667 14.9626667,89.454 14.9626667,88.444 C14.9626667,87.434 15.786,86.6073333 16.796,86.6073333 L54.6226667,86.6073333 Z" id="Bottom" fill="#528311"></path>
                        <path d="M63.8346667,38.4966667 C62.2913333,38.4966667 61.0413333,37.2433333 61.0413333,35.71 C61.0413333,21.74 49.6746667,10.3833333 35.708,10.3833333 C34.168,10.3833333 32.9113333,9.12666667 32.9113333,7.59 C32.9113333,6.05 34.168,4.79333333 35.708,4.79333333 C52.7546667,4.79333333 66.628,18.66 66.628,35.71 C66.628,37.2433333 65.3746667,38.4966667 63.8346667,38.4966667" id="Glow" fill="#FFFFFF"></path>
                    </g>
                    <g id="Bulb" transform="translate(243.000000, 120.000000)">
                        <path d="M35.71,-3.58824082e-12 C55.4433333,-3.58824082e-12 71.42,15.9833333 71.42,35.71 C71.42,36.88 70.5666667,53.38 57.11,70.71 C53.17,75.9333333 53.82,86.4466667 53.8566667,86.4466667 L17.4733333,86.4466667 C17.5066667,86.4466667 18.23,75.9333333 14.3066667,70.71 C0.833333333,53.3666667 5.68434189e-14,36.88 5.68434189e-14,35.71 C5.68434189e-14,15.9833333 15.9833333,-3.58824082e-12 35.71,-3.58824082e-12 Z" id="Glass" fill="#EDE0BE"></path>
                        <path d="M47.5193333,51.8363333 L49.3826667,52.3963333 L44.7493333,89.2063333 L42.8826667,88.6496667 L46.9035713,56.7238925 C46.2646881,56.3037672 45.9032527,55.4932107 45.6183333,54.8456667 C45.4483333,54.469 45.0983333,53.6723333 44.895,53.6723333 C44.6983333,53.6723333 44.3416667,54.469 44.1783333,54.8456667 C43.7683333,55.7623333 43.215,57.0056667 41.9316667,57.0056667 C40.6516667,57.0056667 40.0983333,55.7623333 39.6916667,54.8456667 C39.595,54.639 39.455,54.3056667 39.3016667,54.049 C38.6516667,55.2623333 37.4616667,57.0056667 36.0083333,57.0056667 C34.7283333,57.0056667 34.175,55.7623333 33.765,54.8456667 C33.595,54.459 33.2416667,53.6723333 33.045,53.6723333 C32.845,53.6723333 32.4916667,54.459 32.325,54.8456667 C31.9216667,55.7623333 31.3616667,57.0056667 30.0783333,57.0056667 C28.795,57.0056667 28.2416667,55.7623333 27.835,54.8456667 C27.6616667,54.469 27.3116667,53.6723333 27.1083333,53.6723333 C26.9083333,53.6723333 26.555,54.459 26.3883333,54.8456667 C26.0176167,55.6882045 25.5145475,56.8067116 24.4391166,56.9821042 L28.4326667,88.6496667 L26.5626667,89.2063333 L21.926,52.3963333 L23.7893333,51.8363333 L24.22612,55.3018891 C24.4298897,55.1409427 24.7169594,54.496581 24.865,54.1656667 C25.2716667,53.2523333 25.825,52.0056667 27.1083333,52.0056667 C28.395,52.0056667 28.9516667,53.2523333 29.355,54.1656667 C29.5283333,54.5456667 29.8783333,55.339 30.0783333,55.339 C30.2816667,55.339 30.6316667,54.5456667 30.8016667,54.1656667 C31.2083333,53.2523333 31.765,52.0056667 33.045,52.0056667 C34.3283333,52.0056667 34.8816667,53.2523333 35.2883333,54.1656667 C35.455,54.5456667 35.8083333,55.339 36.0083333,55.339 C36.4983333,55.339 37.5516667,53.9856667 38.2083333,52.499 C38.345,52.2023333 38.645,52.0056667 38.9716667,52.0056667 C40.255,52.0056667 40.8083333,53.259 41.2183333,54.1656667 C41.3783333,54.5456667 41.735,55.339 41.9316667,55.339 C42.135,55.339 42.4883333,54.5523333 42.6516667,54.1656667 C43.0616667,53.259 43.615,52.0056667 44.895,52.0056667 C46.1783333,52.0056667 46.7383333,53.259 47.1416667,54.1656667 C47.1612821,54.2102821 47.1832939,54.2602229 47.2071901,54.3136662 L47.5193333,51.8363333 Z" id="Internal" fill="#83BD36"></path>
                        <path d="M54.6226667,86.6073333 C55.6393333,86.6073333 56.4526667,87.434 56.4526667,88.444 C56.4526667,89.454 55.6393333,90.2706667 54.6226667,90.2706667 L53.8926667,90.2703333 L53.8926667,92.7133333 L54.6226667,92.714 C55.6393333,92.714 56.4526667,93.5306667 56.4526667,94.544 C56.4526667,95.554 55.6393333,96.374 54.6226667,96.374 L53.8926667,96.3733333 L53.8926667,98.8203333 L54.6226667,98.821 C55.6393333,98.821 56.4526667,99.631 56.4526667,100.651 C56.4526667,101.654333 55.6393333,102.477667 54.6226667,102.477667 L53.8926667,102.477333 L53.8933333,105.314333 C53.8933333,106.494159 53.0079738,107.466167 51.8634021,107.606841 C51.7443636,108.505052 50.9772562,109.19 50.0473333,109.19 L50.0473333,109.19 L21.374,109.19 C20.4392891,109.19 19.6708154,108.502511 19.5529927,107.601584 C18.4277459,107.442384 17.5666667,106.479744 17.5666667,105.314333 L17.5666667,102.477333 L16.796,102.477667 C15.786,102.477667 14.9626667,101.654333 14.9626667,100.651 C14.9626667,99.631 15.786,98.821 16.796,98.821 L17.5666667,98.8203333 L17.5666667,96.3733333 L16.796,96.374 C15.786,96.374 14.9626667,95.554 14.9626667,94.544 C14.9626667,93.5306667 15.786,92.714 16.796,92.714 L17.5666667,92.7133333 L17.5666667,90.2703333 L16.796,90.2706667 C15.786,90.2706667 14.9626667,89.454 14.9626667,88.444 C14.9626667,87.434 15.786,86.6073333 16.796,86.6073333 L54.6226667,86.6073333 Z" id="Bottom" fill="#528311"></path>
                        <path d="M63.8346667,38.4966667 C62.2913333,38.4966667 61.0413333,37.2433333 61.0413333,35.71 C61.0413333,21.74 49.6746667,10.3833333 35.708,10.3833333 C34.168,10.3833333 32.9113333,9.12666667 32.9113333,7.59 C32.9113333,6.05 34.168,4.79333333 35.708,4.79333333 C52.7546667,4.79333333 66.628,18.66 66.628,35.71 C66.628,37.2433333 65.3746667,38.4966667 63.8346667,38.4966667" id="Glow" fill="#FFFFFF"></path>
                    </g>
                    <g id="Magnifying-Glass" transform="translate(97.000000, 110.000000)">
                        <path d="M77.86,4.10687653e-06 C98.64,-0.00665844784 118.19,8.09334155 132.923333,22.8133416 C147.656667,37.5300082 155.766667,57.0766749 155.773333,77.8566749 C155.773333,95.243736 150.093867,111.793576 139.586314,125.368854 C142.624017,128.483465 145.653519,131.594842 148.675767,134.70432 L152.947333,130.432008 L223.140667,200.625342 L200.647333,223.112008 L130.457333,152.922008 L134.582,148.797 L131.172975,145.293588 C129.788654,143.871243 128.405938,142.450626 127.02458,141.030872 L124.851,138.796 L125.504719,139.468346 C111.92397,150.011027 95.3481239,155.734427 77.8933333,155.74002 C34.9566667,155.763342 0.0166666667,120.816675 4.26325641e-14,77.8866749 C4.26325641e-14,57.1766749 8.07333333,37.6566749 22.7266667,22.9233416 C37.45,8.13667489 57.04,4.10687653e-06 77.86,4.10687653e-06 Z M77.86,14.5266749 C60.95,14.5433416 45.0266667,21.1666749 33.0366667,33.2033416 C21.1133333,45.1700082 14.55,61.0400082 14.55,77.8866749 C14.55,112.813342 42.9633333,141.210008 77.89,141.193349 C94.8266667,141.183342 110.746667,134.566675 122.753333,122.513342 C134.69,110.550008 141.24,94.6900082 141.24,77.8600082 C141.226667,60.9766749 134.623333,45.0700082 122.646667,33.1066749 C110.663333,21.1066749 94.7666667,14.5266749 77.86,14.5266749 Z" id="Combined-Shape" fill="#175377"></path>
                        <path d="M33.196,33.3563416 C21.3093333,45.2796749 14.7693322,61.0930082 14.7693322,77.8896749 C14.7626667,112.693008 43.0793333,140.999675 77.8893333,140.976356 C94.7693322,140.973008 110.639333,134.373008 122.606,122.363008 C134.506,110.436342 141.012667,94.6363416 141.026,77.8563416 C141.012667,61.0296749 134.426,45.1863416 122.489333,33.2496749 C110.552667,21.3063416 94.6993333,14.7430082 77.866,14.7463403 C60.9993333,14.7530082 45.1293333,21.3496749 33.196,33.3563416" id="Glass" fill="#E8F7FF"></path>
                        <polygon id="Fill-59" fill="#43579C" points="158.342667 135.830342 135.856 158.327008 130.459333 152.923675 152.949333 130.433675"></polygon>
                        <path d="M228.531333,206.022675 C228.531333,218.439342 218.468,228.506008 206.038,228.512675 C204.241333,226.706008 202.448,224.916008 200.648,223.112675 C208.148,215.612675 215.641333,208.122675 223.141333,200.626008 C224.934667,202.426008 226.731333,204.222675 228.531333,206.022675" id="Fill-61" fill="#43579C"></path>
                    </g>
                    <g id="Bulb" transform="translate(120.000000, 45.000000)">
                        <path d="M54.5966667,5.51381163e-12 C84.7666667,5.51381163e-12 109.2,24.4333333 109.2,54.6033333 C109.2,56.38 107.89,81.6166667 87.32,108.106667 C81.2966667,116.106667 82.29,132.17 82.3433333,132.17 L26.7166667,132.17 C26.7666667,132.17 27.87,116.106667 21.8733333,108.106667 C1.27666667,81.5933333 -4.05009359e-13,56.38 -4.05009359e-13,54.6033333 C-4.05009359e-13,24.4333333 24.4333333,5.51381163e-12 54.5966667,5.51381163e-12 Z" id="Glass" fill="#C2E685"></path>
                        <path d="M97.5976667,58.8516667 C95.2376667,58.8516667 93.3276667,56.9483333 93.3276667,54.5883333 C93.3276667,33.2316667 75.951,15.8683333 54.5976667,15.8683333 C52.2343333,15.8683333 50.321,13.955 50.321,11.6016667 C50.321,9.235 52.2343333,7.325 54.5976667,7.325 C80.661,7.325 101.867667,28.525 101.867667,54.5883333 C101.867667,56.9483333 99.9576667,58.8516667 97.5976667,58.8516667" id="Glow" fill="#EDE0BE"></path>
                        <path d="M72.6546667,79.2536667 L75.5046667,80.1103333 L68.418,136.393667 L65.568,135.533667 L71.7132641,86.7237628 C70.7373615,86.077807 70.1858991,84.83539 69.7506667,83.852 C69.494,83.2686667 68.9506667,82.062 68.6473333,82.062 C68.3406667,82.062 67.8006667,83.2686667 67.5473333,83.852 C66.9273333,85.2453333 66.074,87.1586667 64.114,87.1586667 C62.154,87.1586667 61.304,85.2453333 60.684,83.852 C60.5473333,83.532 60.324,83.0286667 60.0973333,82.6353333 C59.1006667,84.4853333 57.274,87.1586667 55.054,87.1586667 C53.0973333,87.1586667 52.2473333,85.2453333 51.6273333,83.852 C51.3673333,83.2686667 50.8273333,82.062 50.524,82.062 C50.2173333,82.062 49.6773333,83.2686667 49.4206667,83.852 C48.804,85.2453333 47.954,87.1586667 45.9906667,87.1586667 C44.0306667,87.1586667 43.1773333,85.2453333 42.5573333,83.852 C42.2973333,83.2686667 41.7606667,82.062 41.4473333,82.062 C41.1473333,82.062 40.6073333,83.2686667 40.344,83.852 C39.7776735,85.1315918 39.0117426,86.8497509 37.3697673,87.1217396 L43.4653333,135.533667 L40.6186667,136.393667 L33.5286667,80.1103333 L36.3786667,79.2536667 L37.0446372,84.544725 C37.3554936,84.2934844 37.7951091,83.3232745 38.0173333,82.8153333 C38.6406667,81.4153333 39.4906667,79.512 41.4473333,79.512 C43.4106667,79.512 44.264,81.4153333 44.884,82.8153333 C45.144,83.402 45.684,84.6053333 45.9906667,84.6053333 C46.294,84.6053333 46.834,83.402 47.094,82.8153333 C47.714,81.4153333 48.5606667,79.512 50.524,79.512 C52.484,79.512 53.334,81.4153333 53.954,82.8153333 C54.214,83.402 54.7506667,84.6053333 55.054,84.6053333 C55.8073333,84.6053333 57.414,82.5386667 58.424,80.2686667 C58.6306667,79.812 59.0806667,79.512 59.5873333,79.512 C61.5473333,79.512 62.3973333,81.422 63.014,82.8153333 C63.274,83.402 63.814,84.6053333 64.114,84.6053333 C64.4206667,84.6053333 64.9573333,83.402 65.214,82.8186667 C65.834,81.422 66.684,79.512 68.6473333,79.512 C70.6073333,79.512 71.4573333,81.422 72.0773333,82.8186667 C72.1069102,82.8858867 72.1402051,82.9613397 72.1764377,83.0422356 L72.6546667,79.2536667 Z" id="Internal" fill="#528311"></path>
                        <path d="M83.5156667,132.421667 C85.0623333,132.421667 86.3156667,133.675 86.3156667,135.221667 C86.3156667,136.771667 85.0623333,138.018333 83.5156667,138.018333 L82.3983333,138.017667 L82.3983333,141.747667 L83.5156667,141.747667 C85.0623333,141.747667 86.3156667,143.004333 86.3156667,144.544333 C86.3156667,146.097667 85.0623333,147.347667 83.5156667,147.347667 L82.3983333,147.347667 L82.3983333,151.076667 L83.5156667,151.077 C85.0623333,151.077 86.3156667,152.330333 86.3156667,153.880333 C86.3156667,155.423667 85.0623333,156.677 83.5156667,156.677 L82.3983333,156.676667 L82.3993333,161.008 C82.3993333,162.816968 81.0488631,164.315384 79.2961733,164.531293 C79.1079254,165.896068 77.9353969,166.940667 76.5226667,166.940667 L76.5226667,166.940667 L32.676,166.940667 C31.2543838,166.940667 30.0851289,165.891966 29.9011871,164.522372 C28.1818122,164.281615 26.856,162.796607 26.856,161.008 L26.8553333,156.676667 L25.6756667,156.677 C24.1323333,156.677 22.8823333,155.423667 22.8823333,153.880333 C22.8823333,152.330333 24.1323333,151.077 25.6756667,151.077 L26.8553333,151.076667 L26.8553333,147.347667 L25.6756667,147.347667 C24.1323333,147.347667 22.8823333,146.097667 22.8823333,144.544333 C22.8823333,143.004333 24.1323333,141.747667 25.6756667,141.747667 L26.8553333,141.747667 L26.8553333,138.017667 L25.6756667,138.018333 C24.1323333,138.018333 22.8823333,136.771667 22.8823333,135.221667 C22.8823333,133.675 24.1323333,132.421667 25.6756667,132.421667 L83.5156667,132.421667 Z" id="Bottom" fill="#2E5002"></path>
                    </g>
                </g>
            </g>
        </g>
    </g>
</svg>