<?xml version="1.0" encoding="UTF-8"?>
<svg width="354px" height="348px" viewBox="0 0 354 348" version="1.1" xmlns="http://www.w3.org/2000/svg" xmlns:xlink="http://www.w3.org/1999/xlink">
    <title>image_health-history</title>
    <g id="Product" stroke="none" stroke-width="1" fill="none" fill-rule="evenodd">
        <g id="Health-Timeline---Empty" transform="translate(-543.000000, -330.000000)">
            <g id="image_health-history" transform="translate(543.000000, 330.000000)">
                <path d="M176.666667,347.83 C79.2533333,347.83 0,269.813333 0,173.913333 C0,78.0166667 79.2533333,0 176.666667,0 C274.08,0 353.333333,78.0166667 353.333333,173.913333 C353.333333,269.813333 274.08,347.83 176.666667,347.83" id="Fill-1" fill="#2AAAE1"></path>
                <polygon id="Fill-3" fill="#43579C" points="300.976333 247.110667 300.976333 164.814 300.976333 123.554 271.409667 93.984 188.936333 93.984 188.936333 124.530667 188.936333 164.814 188.936333 247.110667"></polygon>
                <polygon id="Fill-5" fill="#E8F7FF" points="271.411 123.552667 300.977667 123.552667 271.411 93.9826667"></polygon>
                <polygon id="Fill-7" fill="#43579C" points="300.976333 123.552667 271.409667 123.552667 300.976333 153.116"></polygon>
                <polygon id="Fill-9" fill="#C2E685" points="175.445667 247.110667 175.445667 164.814 175.445667 123.554 145.879 93.984 63.4056667 93.984 63.4056667 124.530667 63.4056667 164.814 63.4056667 247.110667"></polygon>
                <polygon id="Fill-11" fill="#EDE0BE" points="145.878667 123.552667 175.445333 123.552667 145.878667 93.9826667"></polygon>
                <polygon id="Fill-13" fill="#528311" points="175.445667 123.552667 145.879 123.552667 175.445667 153.116"></polygon>
                <polygon id="Fill-15" fill="#FFFFFF" points="202.654333 143.933667 202.654333 156.197 137.371 156.197 137.354333 172.320333 202.651 172.320333 202.654333 184.587 228.054333 164.257"></polygon>
                <polygon id="Fill-17" fill="#FFFFFF" points="162.752 180.942 162.752 193.208667 228.035333 193.208667 228.052 209.332 162.755333 209.332 162.752 221.592 137.352 201.268667"></polygon>
            </g>
        </g>
    </g>
</svg>