<?xml version="1.0" encoding="UTF-8"?>
<svg width="350px" height="350px" viewBox="0 0 350 350" version="1.1" xmlns="http://www.w3.org/2000/svg" xmlns:xlink="http://www.w3.org/1999/xlink">
    <title>image_api-error</title>
    <g id="Product" stroke="none" stroke-width="1" fill="none" fill-rule="evenodd">
        <g id="API-Broken" transform="translate(-545.000000, -330.000000)">
            <g id="Empty-State" transform="translate(120.000000, 330.000000)">
                <g id="image_api-error" transform="translate(425.000000, 0.000000)">
                    <path d="M175,350 C78.5023585,350 0,271.500719 0,175.003354 C0,78.5093436 78.5023585,-4.69226335e-14 175,-4.69226335e-14 C271.497642,-4.69226335e-14 350,78.5093436 350,175.003354 C350,271.500719 271.497642,350 175,350" id="Fill-1" fill="#2AAAE1"></path>
                    <path d="M26,251 C54.1817989,304.414349 110.822814,341 176,341 C241.177186,341 297.818201,304.414349 326,251 L26,251 Z" id="Fill-3" fill="#C2E685"></path>
                    <g id="Computer" transform="translate(72.000000, 88.000000)">
                        <path d="M6.01933962,148.431038 C2.69433962,148.431038 0,145.733396 0,142.415 L0,142.415 L0,125.162642 L205.806604,125.162642 L205.806604,142.415 C205.806604,145.733396 203.10566,148.431038 199.787264,148.431038 L199.787264,148.431038 L124.369858,148.431368 C124.716557,152.169104 125.588255,160.727594 126.516085,164.782311 C127.361368,168.493632 127.556179,169.210142 129.821274,170.299764 C131.122217,170.917217 133.317972,171.775708 135.143915,172.469104 C136.7205,173.058425 138.109839,173.725997 138.322043,173.829037 L138.350047,173.842689 C138.350047,173.842689 139.4925,174.519575 137.412311,174.479953 L137.412311,174.479953 L68.4028774,174.479953 C66.1906132,174.367689 67.5675,173.604953 67.5675,173.604953 C67.5675,173.604953 68.9873113,173.096462 70.7307075,172.442689 C72.5401415,171.755896 74.7094811,170.910613 75.9873113,170.299764 C78.2623113,169.210142 78.447217,168.493632 79.2958019,164.782311 C80.2236321,160.727594 81.0887264,152.169104 81.4420283,148.431368 L81.4420283,148.431368 Z" id="Combined-Shape" fill="#1E347E"></path>
                        <path d="M205.400472,124.936792 L205.400472,5.61320755 C205.400472,2.52264151 202.87783,-1.64135372e-12 199.787264,-1.64135372e-12 L6.01933962,-1.64135372e-12 C2.92877358,-1.64135372e-12 0.406132075,2.52264151 0.406132075,5.61320755 L0.406132075,124.936792 L205.400472,124.936792 Z" id="Fill-6" fill="#175377"></path>
                        <polygon id="Fill-18" fill="#E8F7FF" points="9.92712264 114.333443 195.869575 114.333443 195.869575 9.62731132 9.92712264 9.62731132"></polygon>
                    </g>
                    <g id="Screwdriver" transform="translate(290.690600, 96.974434)">
                        <path d="M27.7512869,0.00033018868 L34.0083623,28.9149528 L27.7578906,36.9451415 L27.7562397,36.9481132 L27.3781736,36.9418396 L27.3781736,142.645142 L19.9060038,142.648443 L19.905617,142.647 L15.6185038,142.648113 L15.6185038,36.9481132 L15.2387869,36.9481132 L8.99161704,28.9146226 L15.2387869,6.25277607e-13 L27.7512869,0.00033018868 Z" id="Tip" fill="#C2E685"></path>
                        <path d="M42.5549661,160.983491 C42.5186453,157.873113 40.6662869,155.205189 37.9884567,153.950472 C40.8412869,151.609434 42.7794944,147.620755 42.7794944,144.328774 L42.7794944,139.904245 C42.7761925,135.618396 42.7761925,134.191981 42.7794944,134.188679 C42.7761925,132.966981 42.7728906,131.49434 42.7794944,129.767453 C42.7662869,125.471698 39.2761925,121.951887 34.9342114,121.925472 L8.06675855,121.925472 C3.71817364,121.958491 0.218173644,125.465094 0.22147553,129.767453 C0.22147553,131.500943 0.228079304,132.963679 0.228079304,134.185377 C0.228079304,138.471226 0.22147553,139.900943 0.22147553,139.900943 C0.228079304,141.129245 0.22147553,142.588679 0.22147553,144.328774 C0.20166421,147.617453 2.13987176,151.60283 4.99270195,153.94717 C2.05072081,155.116038 -0.0261659791,157.962264 0,161.270755 C0.188456662,188.897642 0.264400059,199.72783 0.455909493,227.351415 C0.455909493,231.63066 3.74789062,237.095283 8.08326798,238.528302 C16.9950604,241.463679 26.6464755,241.404245 35.5219472,238.346698 C39.8177019,236.847642 43.0304378,231.340094 43.0074485,227.050943 C42.8125133,199.437264 42.7431736,188.610377 42.5549661,160.983491" id="Handle" fill="#E18C28"></path>
                    </g>
                    <path d="M154.999815,112 C163.81179,112 171.251405,118.014448 173.435675,126.161101 L181.564096,126.161101 C183.747627,118.014448 191.184966,112 199.996941,112 L233.914616,112 C244.435422,112 253,120.573286 253,131.112772 L253,132.887228 C253,143.426714 244.435422,152 233.914616,152 L199.996941,152 C190.558673,152 182.697383,145.100241 181.179535,136.070959 L173.820369,136.070959 C172.301984,145.100241 164.438083,152 154.999815,152 L121.08214,152 C110.561334,152 102,143.426714 102,132.887228 L102,131.112772 C102,120.573286 110.561334,112 121.08214,112 L154.999815,112 Z M154.999815,121.912252 L121.08214,121.912252 C116.01152,121.912252 111.894683,126.042899 111.894683,131.112772 L111.894683,132.887228 C111.894683,137.957101 116.01152,142.087748 121.08214,142.087748 L154.999815,142.087748 C158.951888,142.087748 162.324563,139.578486 163.62023,136.071003 L141.576461,136.070198 C138.838391,136.070198 136.625875,133.850504 136.625875,131.114072 C136.625875,128.377641 138.838391,126.161196 141.576461,126.161196 L162.740441,126.161085 C161.106787,123.608464 158.249132,121.912252 154.999815,121.912252 Z M233.914616,121.912252 L199.996941,121.912252 C196.749703,121.912252 193.89013,123.608464 192.25483,126.161085 L203.766977,126.161196 C206.498558,126.161196 208.714319,128.377641 208.714319,131.114072 C208.714319,133.850504 206.498558,136.070198 203.766977,136.070198 L191.374055,136.071003 C192.671338,139.578486 196.047396,142.087748 199.996941,142.087748 L233.914616,142.087748 C238.981992,142.087748 243.102073,137.957101 243.102073,132.887228 L243.102073,131.112772 C243.102073,126.042899 238.981992,121.912252 233.914616,121.912252 Z" id="Link" fill="#43579C"></path>
                    <polygon id="Mouse-Arrow" fill="#E18C28" points="208.451274 178.638868 194.471085 174.095472 180.494198 169.552075 185.034292 183.528962 189.577689 197.509151 194.487594 187.943585 201.95316 195.412453 206.351274 191.011038 198.889009 183.552075"></polygon>
                    <path d="M177.551604,173.400802 C178.007264,173.400802 178.377075,173.773915 178.377075,174.229575 L178.377075,184.927689 C178.377075,185.383349 178.007264,185.749858 177.551604,185.749858 C177.095943,185.749858 176.736038,185.383349 176.736038,184.927689 L176.736038,174.229575 C176.736038,173.773915 177.095943,173.400802 177.551604,173.400802 Z M172.916415,170.730566 C173.144245,171.120189 173.008868,171.628679 172.622547,171.856509 L163.360755,177.205566 C163.228679,177.281509 163.083396,177.311226 162.941415,177.311226 C162.657453,177.311226 162.386698,177.169245 162.234811,176.908396 C162.006981,176.51217 162.139057,176.003679 162.528679,175.779151 L171.797075,170.430094 C172.193302,170.202264 172.688585,170.340943 172.916415,170.730566 Z M163.359764,158.908821 L172.621557,164.254575 C173.007877,164.482406 173.143255,164.990896 172.918726,165.380519 C172.76684,165.64467 172.489481,165.789953 172.205519,165.789953 C172.06684,165.789953 171.924858,165.756934 171.796085,165.680991 L162.527689,160.338538 C162.138066,160.104104 162.005991,159.602217 162.233821,159.205991 C162.458349,158.816368 162.963538,158.684292 163.359764,158.908821 Z M192.873019,159.205991 C193.097547,159.602217 192.965472,160.104104 192.569245,160.338538 L183.314057,165.680991 C183.181981,165.756934 183.036698,165.789953 182.898019,165.789953 C182.617358,165.789953 182.336698,165.64467 182.184811,165.380519 C181.966887,164.990896 182.09566,164.482406 182.491887,164.254575 L191.750377,158.908821 C192.143302,158.684292 192.648491,158.816368 192.873019,159.205991 Z M177.551604,150.365189 C178.007264,150.365189 178.377075,150.735 178.377075,151.19066 L178.377075,161.88217 C178.377075,162.341132 178.007264,162.70434 177.551604,162.70434 C177.095943,162.70434 176.736038,162.341132 176.736038,161.88217 L176.736038,151.19066 C176.736038,150.735 177.095943,150.365189 177.551604,150.365189 Z" id="Burst" fill="#F5D2AF"></path>
                </g>
            </g>
        </g>
    </g>
</svg>