<?xml version="1.0" encoding="UTF-8"?>
<svg width="189px" height="160px" viewBox="0 0 189 160" version="1.1" xmlns="http://www.w3.org/2000/svg" xmlns:xlink="http://www.w3.org/1999/xlink">
    <title>Icon</title>
    <defs>
        <polyline id="path-1" points="35.1243071 0 6.83830603e-14 98.3480599 98.3480599 63.2237528 35.1243071 0"></polyline>
    </defs>
    <g id="Product" stroke="none" stroke-width="1" fill="none" fill-rule="evenodd">
        <g id="Success---Begin" transform="translate(-626.000000, -240.000000)">
            <g id="Head" transform="translate(200.000000, 240.000000)">
                <g id="Icon" transform="translate(426.000000, 0.000000)">
                    <g id="Cone" transform="translate(0.000000, 60.448933)">
                        <mask id="mask-2" fill="white">
                            <use xlink:href="#path-1"></use>
                        </mask>
                        <use id="Mask" fill="#83BD36" xlink:href="#path-1"></use>
                        <polygon id="Path-2" fill="#528311" mask="url(#mask-2)" points="23.8146147 7.99091707 91.4661654 75.7940186 78.6783365 81.4530881 12.7655075 21.496076"></polygon>
                        <polygon id="Path-3" fill="#528311" mask="url(#mask-2)" points="5.41823308 33.3856539 66.3486842 90.6483419 49.1553102 95.0762084 -3.60902256 46.9535581"></polygon>
                    </g>
                    <path d="M88.0215136,14.4360902 L80.4346633,22.0229406 L91.6744416,33.2627188 C93.2199111,35.0189342 93.9926458,37.056144 93.9926458,39.3743483 C93.9926458,41.6925525 93.2199111,43.8702596 91.6744416,45.4157291 L66.7361835,70.7754788 L73.7610449,78.3623292 L99.2612919,53.0025794 C102.984468,48.8579112 104.810932,44.2917513 104.810932,39.3743483 C104.810932,34.4569453 102.984468,29.8205367 99.2612919,25.6758685 L88.0215136,14.4360902" id="Path" fill="#2AAAE1"></path>
                    <path d="M60.0625652,28.6263103 L52.4757148,36.2131606 L56.7608803,40.147083 C58.3063498,41.6925525 59.0790846,43.800011 59.0790846,46.3992097 C59.0790846,48.9984084 58.3063498,51.1058669 56.7608803,52.6513364 L52.4757148,56.5852588 L60.0625652,64.1721091 L63.9964876,59.8869436 C67.7196641,55.7422754 69.6163767,51.2463641 69.6163767,46.3992097 C69.6163767,41.3413095 67.7196641,36.7751496 63.9964876,32.5602327 L60.0625652,28.6263103" id="Path" fill="#175377"></path>
                    <path d="M133.472367,39.79584 C128.625213,39.79584 124.129301,41.6925525 119.984633,45.4157291 L80.4346633,85.0359475 L88.0215136,92.060809 L127.22024,53.0025794 C128.976456,51.2463641 131.083914,50.3331321 133.472367,50.3331321 C135.86082,50.3331321 137.968278,51.2463641 139.724494,53.0025794 L144.009659,57.2877449 L151.245266,49.7008946 L147.311344,45.4157291 C143.166676,41.6925525 138.530267,39.79584 133.472367,39.79584" id="Path" fill="#43579C"></path>
                    <path d="M119.422644,81.9450085 C114.505241,81.9450085 110.00933,83.8417211 105.794413,87.5648976 L94.6248834,98.7344273 L102.211734,106.321278 L113.381263,95.151748 C115.137479,93.3955326 117.10444,92.4823006 119.422644,92.4823006 C121.740848,92.4823006 123.848307,93.3955326 125.604522,95.151748 L136.984798,106.321278 L144.360902,99.0856704 L133.121124,87.5648976 C128.976456,83.8417211 124.340047,81.9450085 119.422644,81.9450085 Z" id="Path" fill="#1E347E"></path>
                    <polygon id="Star" fill="#43579C" transform="translate(43.308271, 17.443609) rotate(-39.000000) translate(-43.308271, -17.443609) " points="43.3082707 24.3849624 50.7428571 28.8721805 48.7699248 20.4150376 55.3383459 14.724812 46.6887218 13.9789474 43.3082707 6.01503759 39.9278195 13.9789474 31.2781955 14.724812 37.8345865 20.4150376 35.8736842 28.8721805"></polygon>
                    <polygon id="Star" fill="#2AAAE1" transform="translate(165.413534, 70.375940) rotate(-85.000000) translate(-165.413534, -70.375940) " points="165.413534 83.1626435 179.167519 91.4285714 175.517594 75.8496241 187.669173 65.3676296 171.667368 63.9936684 165.413534 49.3233083 159.159699 63.9936684 143.157895 65.3676296 155.287218 75.8496241 151.659549 91.4285714"></polygon>
                    <polygon id="Star" fill="#175377" transform="translate(121.541353, 19.849624) rotate(133.000000) translate(-121.541353, -19.849624) " points="121.541353 26.0603087 128.255714 30.075188 126.47391 22.5082707 132.406015 17.4170162 124.594323 16.7496636 121.541353 9.62406015 118.488383 16.7496636 110.676692 17.4170162 116.597932 22.5082707 114.826992 30.075188"></polygon>
                </g>
            </g>
        </g>
    </g>
</svg>