<?xml version="1.0" encoding="utf-8"?>
<!-- Generator: Adobe Illustrator 24.3.0, SVG Export Plug-In . SVG Version: 6.00 Build 0)  -->
<svg version="1.1" id="Layer_1" xmlns="http://www.w3.org/2000/svg" xmlns:xlink="http://www.w3.org/1999/xlink" x="0px" y="0px"
	 viewBox="0 0 140 160" style="enable-background:new 0 0 140 160;" xml:space="preserve">
<style type="text/css">
	.st0{fill-rule:evenodd;clip-rule:evenodd;}
</style>
<path id="Height" class="st0" d="M28,0c14.2,0,21.4,17.3,11.4,27.4C29.3,37.4,12,30.2,12,16C12,7.2,19.2,0,28,0 M16,40h24
	c8.8,0,16,7.2,16,16v44H44v60H12v-60H0V56C0,47.2,7.2,40,16,40 M140,48H92v16h48 M140,72h-24v16h24 M140,0H92v16h48 M140,24h-24v16
	h24 M140,96H92v16h48 M140,144H92v16h48 M140,120h-24v16h24"/>
</svg>
