<?xml version="1.0" encoding="utf-8"?>
<!-- Generator: Adobe Illustrator 24.3.0, SVG Export Plug-In . SVG Version: 6.00 Build 0)  -->
<svg version="1.1" id="Layer_1" xmlns="http://www.w3.org/2000/svg" xmlns:xlink="http://www.w3.org/1999/xlink" x="0px" y="0px"
	 viewBox="0 0 143 160" style="enable-background:new 0 0 143 160;" xml:space="preserve">
<style type="text/css">
	.st0{fill-rule:evenodd;clip-rule:evenodd;}
</style>
<path id="Bug" class="st0" d="M88.9,80H53.3V62.2h35.6 M88.9,115.6H53.3V97.8h35.6 M142.2,44.4h-25c-4-6.9-9.5-12.9-16.2-17.4
	l14.5-14.5L103,0L83.7,19.3c-4.1-1-8.2-1.5-12.6-1.5s-8.5,0.5-12.5,1.5L39.2,0L26.7,12.5L41.1,27C34.5,31.6,29,37.5,25,44.4H0v17.8
	h18.6c-0.4,2.9-0.8,5.9-0.8,8.9V80H0v17.8h17.8v8.9c0,3,0.4,6,0.8,8.9H0v17.8h25c9.2,15.9,26.4,26.7,46.1,26.7s36.9-10.8,46.1-26.7
	h25v-17.8h-18.6c0.4-2.9,0.8-5.9,0.8-8.9v-8.9h17.8V80h-17.8v-8.9c0-3-0.4-6-0.8-8.9h18.6V44.4z"/>
</svg>
