<?xml version="1.0" encoding="utf-8"?>
<!-- Generator: Adobe Illustrator 24.3.0, SVG Export Plug-In . SVG Version: 6.00 Build 0)  -->
<svg version="1.1" id="Layer_1" xmlns="http://www.w3.org/2000/svg" xmlns:xlink="http://www.w3.org/1999/xlink" x="0px" y="0px"
	 viewBox="0 0 200 121" style="enable-background:new 0 0 200 121;" xml:space="preserve">
<style type="text/css">
	.st0{fill-rule:evenodd;clip-rule:evenodd;}
</style>
<path id="Family" class="st0" d="M100,0c16.1,0,29.2,13.1,29.2,29.2c0,16.1-13.1,29.2-29.2,29.2S70.8,45.3,70.8,29.2
	C70.8,13.1,83.9,0,100,0 M41.7,20.8c4.7,0,9,1.2,12.8,3.5c-1.2,11.9,2.2,23.8,9.4,33c-4.2,8-12.5,13.5-22.2,13.5
	c-13.8,0-25-11.2-25-25C16.7,32,27.9,20.8,41.7,20.8 M158.3,20.8c13.8,0,25,11.2,25,25c0,13.8-11.2,25-25,25
	c-9.7,0-18-5.5-22.2-13.5c7.2-9.2,10.7-21.1,9.4-33C149.3,22.1,153.7,20.8,158.3,20.8 M45.8,106.2C45.8,89,70.1,75,100,75
	s54.2,14,54.2,31.2v14.6H45.8V106.2 M0,120.8v-12.5C0,96.8,15.8,87,37.1,84.2c-4.9,5.7-7.9,13.5-7.9,22.1v14.6H0 M200,120.8h-29.2
	v-14.6c0-8.6-3-16.4-7.9-22.1C184.2,87,200,96.8,200,108.3V120.8z"/>
</svg>
