<?xml version="1.0" encoding="utf-8"?>
<!-- Generator: Adobe Illustrator 24.3.0, SVG Export Plug-In . SVG Version: 6.00 Build 0)  -->
<svg version="1.1" id="Layer_1" xmlns="http://www.w3.org/2000/svg" xmlns:xlink="http://www.w3.org/1999/xlink" x="0px" y="0px"
	 viewBox="0 0 161 160" style="enable-background:new 0 0 161 160;" xml:space="preserve">
<style type="text/css">
	.st0{fill-rule:evenodd;clip-rule:evenodd;}
</style>
<path id="Blood" class="st0" d="M102.1,1.9c3.2-2.7,7.9-2.5,10.9,0.4c3,3,3.1,7.7,0.4,10.9L88.2,38l6.1,7.6l15.6,40.1
	c1.6,4.3,0.6,9.2-2.7,12.4l-24.8,24.8c-4.8,4.5-12.2,4.5-17,0L28.5,86.1c-2.1-2.1-3.3-5-3.2-8l-4-51.6h8.6c2.3-0.1,4.4,0.8,6,2.4
	l1.1,1.4l8.4,27.9 M45.4,160L0,114.8l17-17l45.4,45.4 M140.3,19.7c0,0-20,22.1-20,36.1c0,11.1,9,20,20,20s20-9,20-20
	C160.4,41.8,140.3,19.7,140.3,19.7z"/>
</svg>
