<?xml version="1.0" encoding="utf-8"?>
<!-- Generator: Adobe Illustrator 24.3.0, SVG Export Plug-In . SVG Version: 6.00 Build 0)  -->
<svg version="1.1" id="Layer_1" xmlns="http://www.w3.org/2000/svg" xmlns:xlink="http://www.w3.org/1999/xlink" x="0px" y="0px"
	 viewBox="0 0 160 160" style="enable-background:new 0 0 160 160;" xml:space="preserve">
<style type="text/css">
	.st0{fill-rule:evenodd;clip-rule:evenodd;}
</style>
<path id="Pill" style="fill:#fff;" class="st0" d="M14.7,74L74,14.7c19.7-19.6,51.5-19.6,71.2,0c19.6,19.6,19.6,51.5,0,71.2L86,145.3
	c-19.7,19.6-51.6,19.6-71.2,0C-4.9,125.6-4.9,93.8,14.7,74 M26.6,86c-8.8,8.7-11.7,21.2-8.7,32.4l50.3-50.2l35.6,35.6L133.4,74
	c13.2-13.1,13.2-34.3,0-47.4C120.3,13.5,99,13.5,86,26.6L26.6,86z"/>
</svg>
