<?xml version="1.0" encoding="utf-8"?>
<!-- Generator: Adobe Illustrator 24.3.0, SVG Export Plug-In . SVG Version: 6.00 Build 0)  -->
<svg version="1.1" id="Layer_1" xmlns="http://www.w3.org/2000/svg" xmlns:xlink="http://www.w3.org/1999/xlink" x="0px" y="0px"
	 viewBox="0 0 200 146" style="enable-background:new 0 0 200 146;" xml:space="preserve">
<style type="text/css">
	.st0{fill-rule:evenodd;clip-rule:evenodd;}
</style>
<path id="Person" class="st0" d="M127.3,90.9c-24.5,0-72.7,11.8-72.7,36.4v18.2H200v-18.2C200,102.7,151.8,90.9,127.3,90.9
	 M127.3,72.7c20.1,0,36.4-16.3,36.4-36.4S147.4,0,127.3,0c-20.1,0-36.4,16.3-36.4,36.4S107.2,72.7,127.3,72.7 M36.4,100l-5.5-4.5
	C12.7,78.2,0,67.3,0,53.6c0-10.9,9.1-20,20-20c6.4,0,12.7,2.7,16.4,7.3c3.6-4.5,10-7.3,16.4-7.3c10.9,0,20,8.2,20,20
	c0,13.6-12.7,24.5-30.9,41.8L36.4,100z"/>
</svg>
