<?xml version="1.0" encoding="utf-8"?>
<!-- Generator: Adobe Illustrator 24.3.0, SVG Export Plug-In . SVG Version: 6.00 Build 0)  -->
<svg version="1.1" id="Layer_1" xmlns="http://www.w3.org/2000/svg" xmlns:xlink="http://www.w3.org/1999/xlink" x="0px" y="0px"
	 viewBox="0 0 169 160" style="enable-background:new 0 0 169 160;" xml:space="preserve">
<style type="text/css">
	.st0{fill-rule:evenodd;clip-rule:evenodd;}
</style>
<path id="Scale" class="st0" d="M54.4,101.6l-11.9,11.9L31,101.9c-7.2,9.3-12.1,20.5-13.6,32.8h16.3v16.8H0v-8.4
	c0-40.8,29-74.7,67.4-82.5V43.8L0,16.8V0h168.4v16.8L101,43.7v16.8c38.4,7.8,67.4,41.8,67.4,82.5v8.4h-33.7v-16.8H151
	c-1.5-12.3-6.4-23.5-13.6-32.8l-11.5,11.5L114,101.6L125.5,90c-9.3-7.2-20.6-12.1-32.9-13.6v16.3H75.8V76.4
	C63.5,77.9,52.2,82.8,42.9,90L54.4,101.6 M84.2,126.3c9.3,0,16.8,7.5,16.8,16.8s-7.5,16.8-16.8,16.8c-2.7,0-5.2-0.6-7.4-1.8
	L44.4,143l32.4-15.1C79,126.9,81.5,126.3,84.2,126.3z"/>
</svg>
