<?xml version="1.0" encoding="utf-8"?>
<!-- Generator: Adobe Illustrator 24.3.0, SVG Export Plug-In . SVG Version: 6.00 Build 0)  -->
<svg version="1.1" id="Layer_1" xmlns="http://www.w3.org/2000/svg" xmlns:xlink="http://www.w3.org/1999/xlink" x="0px" y="0px"
	 viewBox="0 0 88 160" style="enable-background:new 0 0 88 160;" xml:space="preserve">
<style type="text/css">
	.st0{fill-rule:evenodd;clip-rule:evenodd;}
</style>
<path id="Nut" class="st0" d="M76,86.2c-5.7-5.8-6.2-14.9-1.1-21.2c8.6-10.8,11.1-25.2,6.5-38.3C76.8,13.7,65.8,4,52.4,1
	c-2.7-0.6-5.5-0.9-8.3-1C21.9,0,4,17.9,4,40c0,9.1,3.2,17.9,8.9,25c4.9,6.2,4.5,15-0.9,20.8c-10.9,11.5-14.7,28-10.1,43.2
	s17.1,26.6,32.6,30c3.1,0.7,6.3,1,9.5,1c17.4-0.1,33.1-10.5,40-26.5C91,117.5,87.8,99,76,86.2 M52,24c4.4,0,8,3.6,8,8s-3.6,8-8,8
	s-8-3.6-8-8S47.6,24,52,24 M36,128c-4.4,0-8-3.6-8-8s3.6-8,8-8s8,3.6,8,8S40.5,128,36,128 M44,104c0-4.4,3.6-8,8-8s8,3.6,8,8
	s-3.6,8-8,8S44,108.4,44,104 M60,136c-4.4,0-8-3.6-8-8s3.6-8,8-8s8,3.6,8,8S64.5,136,60,136z"/>
</svg>
