<?xml version="1.0" encoding="utf-8"?>
<!-- Generator: Adobe Illustrator 24.3.0, SVG Export Plug-In . SVG Version: 6.00 Build 0)  -->
<svg version="1.1" id="Layer_1" xmlns="http://www.w3.org/2000/svg" xmlns:xlink="http://www.w3.org/1999/xlink" x="0px" y="0px"
	 viewBox="0 0 60 54" style="enable-background:new 0 0 60 54;" xml:space="preserve">
<style type="text/css">
	.st0{fill-rule:evenodd;clip-rule:evenodd;}
</style>
<path id="Medical" style="fill:#fff;" class="st0" d="M24,0l-6,6v6H9c-3.4,0-5.6,3-6,6L0,48c-0.4,3,1.6,6,6,6h48c4.4,0,6.4-3,6-6l-3-30
	c-0.4-3-2.8-6-6-6h-9V6l-6-6H24 M24,6h12v6H24V6 M27,21h6v9h9v6h-9v9h-6v-9h-9v-6h9V21z"/>
</svg>
