<?xml version="1.0" encoding="utf-8"?>
<!-- Generator: Adobe Illustrator 24.3.0, SVG Export Plug-In . SVG Version: 6.00 Build 0)  -->
<svg version="1.1" id="Layer_1" xmlns="http://www.w3.org/2000/svg" xmlns:xlink="http://www.w3.org/1999/xlink" x="0px" y="0px"
	 viewBox="0 0 160 160" style="enable-background:new 0 0 160 160;" xml:space="preserve">
<style type="text/css">
	.st0{fill-rule:evenodd;clip-rule:evenodd;}
</style>
<path id="Hospital" class="st0" d="M0,160V40c0-4.4,3.6-8,8-8h32V0h80v32h32c4.4,0,8,3.6,8,8v120H96v-40H64v40H0 M56,16v48h16V48h16
	v16h16V16H88v16H72V16H56 M16,144h32v-24H16V144 M16,104h32V80H16V104 M112,144h32v-24h-32V144 M112,104h32V80h-32V104 M64,104h32
	V80H64V104z"/>
</svg>
