<?xml version="1.0" encoding="utf-8"?>
<!-- Generator: Adobe Illustrator 24.3.0, SVG Export Plug-In . SVG Version: 6.00 Build 0)  -->
<svg version="1.1" id="Layer_1" xmlns="http://www.w3.org/2000/svg" xmlns:xlink="http://www.w3.org/1999/xlink" x="0px" y="0px"
	 viewBox="0 0 122 170" style="enable-background:new 0 0 122 170;" xml:space="preserve">
<style type="text/css">
	.st0{fill-rule:evenodd;clip-rule:evenodd;}
</style>
<path id="Gender" class="st0" d="M93.7,16.2h-29V0h56.7v56.7h-16.2V27.6l-31,31C78.4,65,81,72.9,81,81c0,19.6-13.9,35.9-32.4,39.7
	v17h16.2v16.2H48.6V170H32.4v-16.2H16.2v-16.2h16.2v-17C13.9,116.9,0,100.5,0,81c0-22.4,18.1-40.5,40.5-40.5
	c8.1,0,15.9,2.4,22.3,6.7L93.7,16.2 M40.5,56.7c-13.4,0-24.3,10.9-24.3,24.3s10.9,24.3,24.3,24.3c13.4,0,24.3-10.9,24.3-24.3
	S53.9,56.7,40.5,56.7z"/>
</svg>
