<?xml version="1.0" encoding="utf-8"?>
<!-- Generator: Adobe Illustrator 24.3.0, SVG Export Plug-In . SVG Version: 6.00 Build 0)  -->
<svg version="1.1" id="Layer_1" xmlns="http://www.w3.org/2000/svg" xmlns:xlink="http://www.w3.org/1999/xlink" x="0px" y="0px"
	 viewBox="0 0 131 160" style="enable-background:new 0 0 131 160;" xml:space="preserve">
<style type="text/css">
	.st0{fill-rule:evenodd;clip-rule:evenodd;}
</style>
<path id="Birthday" class="st0" d="M65.5,43.6c8.1,0,14.5-6.5,14.5-14.5c0-2.8-0.7-5.3-2.1-7.5L65.5,0L53,21.6
	c-1.4,2.2-2.1,4.7-2.1,7.5C50.9,37.1,57.4,43.6,65.5,43.6 M98.9,116.4l-7.8-7.9l-7.9,7.9c-9.5,9.4-26,9.5-35.6,0l-7.7-7.9l-8,7.9
	c-4.7,4.7-11.1,7.3-17.7,7.3c-5.3,0-10.2-1.7-14.3-4.4v33.5c0,4,3.3,7.3,7.3,7.3h116.4c4,0,7.3-3.3,7.3-7.3v-33.5
	c-4.1,2.8-8.9,4.4-14.3,4.4C110,123.6,103.6,121,98.9,116.4 M109.1,65.5H72.7V50.9H58.2v14.5H21.8C9.8,65.5,0,75.2,0,87.3v11.2
	c0,7.9,6.4,14.3,14.3,14.3c3.9,0,7.6-1.5,10-4.1L40,93.1l15.3,15.5c5.4,5.4,14.8,5.4,20.1,0l15.4-15.5l15.6,15.5
	c2.5,2.7,6.2,4.1,10,4.1c7.9,0,14.3-6.4,14.3-14.3V87.3C130.9,75.2,121.1,65.5,109.1,65.5z"/>
</svg>
