<?xml version="1.0" encoding="utf-8"?>
<!-- Generator: Adobe Illustrator 24.3.0, SVG Export Plug-In . SVG Version: 6.00 Build 0)  -->
<svg version="1.1" id="Layer_1" xmlns="http://www.w3.org/2000/svg" xmlns:xlink="http://www.w3.org/1999/xlink" x="0px" y="0px"
	 viewBox="0 0 160 160" style="enable-background:new 0 0 160 160;" xml:space="preserve">
<style type="text/css">
	.st0{fill-rule:evenodd;clip-rule:evenodd;}
</style>
<path id="Doc" class="st0" d="M136,48c4.5,0,8,3.4,8,8c0,4.4-3.6,8-8,8c-4.6,0-8-3.6-8-8C128,51.4,131.4,48,136,48 M0,0v72
	c0,23.7,17.5,44,41.1,47.3c5,24.1,26.2,40.7,50.9,40.7c13.8,0,27-5.5,36.8-15.2s15.2-23,15.2-36.8V78.5c9.3-3.4,16-12.2,16-22.5
	c0-13.3-10.7-24-24-24s-24,10.7-24,24c0,10.3,6.7,19.2,16,22.5v28.8c0,20-16,36-36,36c-16,0-29.4-9.7-34.2-24.1
	C80,114.4,96,94.4,96,72V0H64v24h16v48c0,17.7-14.3,32-32,32S16,89.7,16,72V24h16V0H0z"/>
</svg>
