<?xml version="1.0" encoding="UTF-8"?>
<svg width="186px" height="180px" viewBox="0 0 186 180" version="1.1" xmlns="http://www.w3.org/2000/svg" xmlns:xlink="http://www.w3.org/1999/xlink">
    <title>Icon</title>
    <g id="Product" stroke="none" stroke-width="1" fill="none" fill-rule="evenodd">
        <g id="Email-Sent" transform="translate(-627.000000, -340.000000)">
            <g id="Icon" transform="translate(627.000000, 340.000000)">
                <path d="M176.931818,52.5309917 L92.9752066,0 L9.01859504,52.5309917 C3.62603306,55.785124 -5.1159077e-13,61.642562 -5.1159077e-13,68.4297521 L-5.1159077e-13,161.404959 C-5.1159077e-13,171.632231 8.3677686,180 18.5950413,180 L167.355372,180 C177.582645,180 185.950413,171.632231 185.950413,161.404959 L185.950413,68.4297521 C185.950413,61.642562 182.32438,55.785124 176.931818,52.5309917" id="BG" fill="#EEEFF6"></path>
                <path d="M176.931818,52.5309917 L92.9752066,0 L9.01859504,52.5309917 C3.62603306,55.785124 1.00897068e-12,61.642562 1.00897068e-12,68.4297521 L1.00897068e-12,161.404959 C1.00897068e-12,171.632231 8.3677686,180 18.5950413,180 L167.355372,180 C177.582645,180 185.950413,171.632231 185.950413,161.404959 L185.950413,68.4297521 C185.950413,61.642562 182.32438,55.785124 176.931818,52.5309917 M167.355372,161.404959 L18.5950413,161.404959 L18.5950413,87.0247934 L92.9752066,133.512397 L167.355372,87.0247934 L167.355372,161.404959 M92.9752066,114.917355 L18.5950413,68.4297521 L92.9752066,21.9421488 L167.355372,68.4297521 L92.9752066,114.917355 Z" id="Email" fill="#528311"></path>
                <path d="M92.375,75.625 C94.805,75.625 96.875,74.725 98.705,72.955 C100.475,71.125 101.375,69.055 101.375,66.625 C101.375,64.195 100.475,62.125 98.705,60.295 C96.875,58.525 94.805,57.625 92.375,57.625 C89.945,57.625 87.875,58.525 86.045,60.295 C84.275,62.125 83.375,64.195 83.375,66.625 C83.375,69.055 84.275,71.125 86.045,72.955 C87.875,74.725 89.945,75.625 92.375,75.625 M92.375,36.625 C100.625,36.625 107.675,39.625 113.525,45.475 C119.375,51.325 122.375,58.375 122.375,66.625 L122.375,70.975 C122.375,73.975 121.325,76.525 119.375,78.625 C117.275,80.635 114.875,81.625 111.875,81.625 C108.275,81.625 105.305,80.125 103.055,77.125 C100.055,80.125 96.515,81.625 92.375,81.625 C88.265,81.625 84.725,80.125 81.755,77.245 C78.875,74.275 77.375,70.765 77.375,66.625 C77.375,62.515 78.875,58.975 81.755,56.005 C84.725,53.125 88.265,51.625 92.375,51.625 C96.515,51.625 100.025,53.125 102.995,56.005 C105.875,58.975 107.375,62.515 107.375,66.625 L107.375,70.975 C107.375,72.205 107.855,73.285 108.755,74.215 C109.655,75.145 110.705,75.625 111.875,75.625 C113.135,75.625 114.185,75.145 115.085,74.215 C115.985,73.285 116.375,72.205 116.375,70.975 L116.375,66.625 C116.375,60.055 114.065,54.415 109.325,49.675 C104.585,44.935 98.945,42.625 92.375,42.625 C85.805,42.625 80.165,44.935 75.425,49.675 C70.685,54.415 68.375,60.055 68.375,66.625 C68.375,73.195 70.685,78.835 75.425,83.575 C80.165,88.315 85.805,90.625 92.375,90.625 L107.375,90.625 L107.375,96.625 L92.375,96.625 C84.125,96.625 77.075,93.625 71.225,87.775 C65.375,81.925 62.375,74.875 62.375,66.625 C62.375,58.375 65.375,51.325 71.225,45.475 C77.075,39.625 84.125,36.625 92.375,36.625 Z" id="at" fill="#83BD36"></path>
            </g>
        </g>
    </g>
</svg>